# xmcd
#
# Track frame offsets: 
#        150
#        8203
#        22101
#        32193
#        45094
#        59021
#        73180
#        83601
#        99434
#        112186
#        125379
#        142924
#
# Disc length: 2045 seconds
#
# Revision: 0
# Processed by: cddbd v1.5.2PL0 Copyright (c) Steve Scherf et al.
# Submitted via: ExactAudioCopyFreeDBPlugin 1.0
#
DISCID=9e07fb0c
DTITLE=Steve Ivey - Best of Bluegrass Collectors Edition
DYEAR=1900
DGENRE=Bluegrass
TTITLE0=Amazing Grace
TTITLE1=I Am A Man of Constant Sorrow
TTITLE2=The Solid Rock
TTITLE3=Wounderful Words of Life
TTITLE4=Believe
TTITLE5=At the Crossroads
TTITLE6=When the Roll is Up Yonder
TTITLE7=Just A Closer Walk
TTITLE8=What A Friend We Have in Jesus
TTITLE9=Jesus Loves Me
TTITLE10=It is Well
TTITLE11=Blessed Assurance
EXTD=
EXTT0=
EXTT1=
EXTT2=
EXTT3=
EXTT4=
EXTT5=
EXTT6=
EXTT7=
EXTT8=
EXTT9=
EXTT10=
EXTT11=
PLAYORDER=
